<?xml version="1.0" encoding="UTF-8"?>
<!DOCTYPE svg PUBLIC "-//W3C//DTD SVG 1.1//EN" "http://www.w3.org/Graphics/SVG/1.1/DTD/svg11.dtd">
<!-- Creator: CorelDRAW 2020 (64-Bit Versión de evaluación) -->
<svg xmlns="http://www.w3.org/2000/svg" xml:space="preserve" width="53.5623mm" height="51.6096mm" version="1.1" style="shape-rendering:geometricPrecision; text-rendering:geometricPrecision; image-rendering:optimizeQuality; fill-rule:evenodd; clip-rule:evenodd"
viewBox="0 0 4943.52 4763.29"
 xmlns:xlink="http://www.w3.org/1999/xlink"
 xmlns:xodm="http://www.corel.com/coreldraw/odm/2003">
 <defs>
  <style type="text/css">
   <![CDATA[
    .str0 {stroke:black;stroke-width:32.56;stroke-miterlimit:22.9256}
    .fil0 {fill:black}
   ]]>
  </style>
 </defs>
 <g id="Capa_x0020_1">
  <metadata id="CorelCorpID_0Corel-Layer"/>
  <path class="fil0 str0" d="M2784.74 2805.21c32.62,-11.22 195.66,-108.21 241.89,-133.26 130.22,-70.57 707.55,-405.24 722.93,-405.48 24.69,-0.38 713.35,405.29 847.39,473.93 33.4,17.1 84.34,44.89 114.86,66.66l-610.14 344.77c-88.12,44.74 -157.36,94.21 -244.67,138.31 -142.24,71.83 -113.06,93.29 -178.35,53.6l-659.88 -393.77c-38.56,-24.99 -220.32,-128.04 -234.02,-144.76zm-804.18 -926.6c113.76,-0.78 119.05,4.74 138.08,-103.83 25.61,-146.19 85.92,-509.49 96.52,-624.45l512.06 0.91 65.33 420.84c58,339.76 19.34,299.98 181.07,306.36l53.38 213.03 -1110.11 0.47c9.4,-37.88 19.04,-75.57 28.41,-113.35l20.37 -81.76c7.49,-17.42 0.07,-10.17 14.89,-18.23zm87.43 -871.08c-11.02,-19.02 -16.93,-74.46 -4.73,-105.04 12.83,-32.21 71.81,-20.39 102.56,-20.31 94.29,0.19 128.52,5.2 146.5,-88.36 10.45,-54.36 52.23,-161.88 11.21,-201.14 -29.29,-28.04 -31.33,-22.95 -56.87,-64 -55.38,-88.96 -47.76,-202.69 10.45,-275.18 11.55,-14.38 22.6,-20.18 32.49,-30.38 192.19,-198.36 521.47,59.72 365.47,308.59 -40.77,65.03 -86.18,48.78 -65.43,150.96 12.19,60.02 15.48,159.8 56.32,187.79 45.19,30.96 183.58,-11.14 211.3,24.08 9.98,12.67 10.88,85.74 0.66,101.71 -15.72,24.56 -73.04,15.6 -105.23,15.57 -78.79,-0.07 -157.57,-0.01 -236.36,-0.01 -74.61,0 -432.33,9.5 -468.33,-4.27zm110.61 -266.4c-68.6,4.64 -244.35,-15.11 -257.55,159.65 -13.35,176.78 42.84,207.58 155.37,251.8 0.03,61.54 -36.01,212.91 -47.06,292.52 -13.35,96.19 -32.79,194.49 -46.49,291.63 -125.89,24.37 -125.68,20.56 -167.97,184.12 -23.57,91.18 -73.21,204.9 -12.03,271.66 57.87,63.13 215.31,39.27 311.84,39.27 116.92,0 234.6,-1.31 351.34,-0.19l523.82 0.2c63.07,0.07 104.13,6.63 144.11,-34.44 72.96,-74.92 18.44,-176.07 -6.26,-275.62 -27.83,-112.16 -30.16,-180.48 -168.48,-182.52l-92.23 -589.82c194.14,-9.72 204.22,-297.99 77.11,-379.71 -52.76,-33.93 -114.57,-27.45 -181.48,-27.49 -2.35,-22.68 -10.25,-45.02 -11.78,-65.13 -3.27,-43.42 34.84,-19.58 80.25,-143.95 29.8,-81.61 30.98,-176 3.23,-258.98 -115.3,-344.83 -608.4,-342.57 -724.44,-0.6 -40.16,118.32 -19.71,264.58 57.36,359.54 31.69,39.05 35.28,40.59 11.33,108.06zm-2162.31 2078.36l3.01 223.28c-2.28,62.9 -0.45,128.99 -0.46,192.29 0,55.93 -10.08,134.66 27.29,158.74 14.19,9.14 42.76,22.99 62.6,33.98 21.29,11.79 41.42,21.33 62.46,33.22l597 335.99c157.4,89.17 319.8,186.93 480.98,272.33 40.95,21.7 84.54,46.36 122.67,69.15 103.06,61.6 260.85,140.74 354.62,201.18l481.24 272.08c272.98,151.75 227.97,168.44 373.31,87.07 40.84,-22.86 77.28,-45.88 118.4,-67l482.25 -271.69c77.68,-48.74 161.39,-89.94 241.07,-135.29 113.55,-64.63 368.87,-214.2 478.26,-269.74 119.92,-60.89 343.93,-197.83 480.52,-272.77 78.91,-43.29 159.45,-88.19 237.47,-133.09 79.75,-45.9 160.86,-89.18 241.83,-135.57 25.25,-14.47 40.51,-14.67 55.4,-40.99 14.02,-24.79 10.75,-53.04 10.56,-86.49l-0.05 -376.9c-0.01,-177.88 21.24,-133.31 -264.15,-293.52 -158.64,-89.05 -319.41,-182.73 -482.49,-271.24 -153.62,-83.36 -331.02,-192.73 -477.58,-270.25 -79.47,-42.04 -157.04,-91.9 -241.54,-135.19 -100.54,-51.53 -202.69,-143.38 -250.96,-73.97 -37.89,54.46 0.52,96.15 42.99,117.18l353.72 200.54c-87.01,43.76 -175.42,103.03 -261.58,148.2 -89.17,46.75 -178.74,101.14 -265.7,149.78l-396.42 223.5c-40.1,24.99 -105.75,40.75 -108.11,96.82 -2.57,60.92 58.03,81.84 103.63,107.32 44.63,24.95 82.59,49.35 128.03,76.23l770.08 461.2c-14.41,15.91 -467.2,264.14 -552.36,314.79l-277.81 156.64c-81.39,42.01 -230.92,147.24 -292.92,136.21 -34.54,-6.15 -513.74,-282.44 -561.98,-308.9l-344.89 -197.52c-24.7,-13.68 -46.58,-22.89 -70.53,-38.19 -26.33,-16.83 -111.97,-66.26 -137.16,-72.83 20.89,-24.25 35.14,-23.7 68.45,-44.97l196.56 -110.49c87.87,-45.04 171.8,-101.83 261.84,-146.84 30.42,-15.21 37.95,-27.91 67.41,-41.41 29.45,-13.5 39.03,-20.88 66.06,-35.86 43.77,-24.26 88.28,-46.21 130.79,-74.09 89.89,-58.96 235.5,-102.73 240.63,-169.65 4.37,-56.87 -65.24,-87.14 -103.71,-107.59l-381.41 -231.91c-123.59,-81.56 -387.58,-222.71 -501.45,-303.1l-6.64 -5.45c-0.47,-1.76 -2.13,-1.83 -3.13,-2.81l137.53 -77.89c117.2,-74.72 249.23,-105.18 234.14,-189.81 -4.97,-27.92 -27.91,-50.81 -59.56,-53.06 -35.89,-2.55 -50.96,13.12 -76.12,26.8 -137.55,74.83 -413.59,226.35 -539.06,303.91l-407.97 230.61c-126.51,68.93 -430.08,235.52 -539.91,303.89 -52.8,32.88 -104.44,35.91 -107.19,113.16zm143.19 479.42l-3.02 -372.12c14.79,7.96 2.38,0.84 15.59,8.86l198.72 106.59 679.84 388.68c41.6,25.4 92.18,50.13 135.83,75.11l547.71 308.78c138.46,81.19 431.95,235.24 547.14,308.49 106.98,68.02 191.63,103.48 322.12,35.52l686.26 -387.13c46.22,-24.26 89.98,-50.03 133.55,-76.58 160.9,-98.02 374.3,-205.3 547.78,-308.67 89.69,-53.44 187.42,-101.01 274.5,-153.63 92.23,-55.73 179.73,-100.8 272.89,-154.91l268.35 -150.04 -0.28 364.68 -432.81 245.4c-49.71,25.61 -94.1,54.54 -143.15,80.47 -158.42,83.76 -414.38,233.2 -578.75,327.68 -23.65,13.6 -50.7,26.91 -74.8,40.28l-363.8 205.65c-108.81,59.75 -707.2,404.69 -720.21,404.41l-1016.29 -570.15c-105.89,-67.11 -322.77,-176.39 -433.03,-243.94l-864.15 -483.44zm625.91 -805.11l447.79 -249.27 295.26 178.48c19.56,10.93 38.98,21.65 57.05,32.71 39.94,24.46 72.76,45.47 114.25,70.66 100.27,60.83 325.91,189.45 407.55,244.24 21.32,14.31 39.16,21.3 53.66,37.94l-966.1 539.3 -987.24 -546.76 577.78 -307.3z"/>
 </g>
</svg>
