<?xml version="1.0" encoding="UTF-8"?>
<!DOCTYPE svg PUBLIC "-//W3C//DTD SVG 1.1//EN" "http://www.w3.org/Graphics/SVG/1.1/DTD/svg11.dtd">
<!-- Creator: CorelDRAW 2020 (64-Bit Versión de evaluación) -->
<svg xmlns="http://www.w3.org/2000/svg" xml:space="preserve" width="54.2588mm" height="41.695mm" version="1.1" style="shape-rendering:geometricPrecision; text-rendering:geometricPrecision; image-rendering:optimizeQuality; fill-rule:evenodd; clip-rule:evenodd"
viewBox="0 0 1709.02 1313.29"
 xmlns:xlink="http://www.w3.org/1999/xlink"
 xmlns:xodm="http://www.corel.com/coreldraw/odm/2003">
 <defs>
  <style type="text/css">
   <![CDATA[
    .fil0 {fill:black}
   ]]>
  </style>
 </defs>
 <g id="Capa_x0020_1">
  <metadata id="CorelCorpID_0Corel-Layer"/>
  <path class="fil0" d="M333.64 1242.48c-162.55,0 -264.02,26.17 -264.02,-165.66l0 -411.53 149.33 0c28.16,0 57.42,-15.15 76.61,-32.57 22.57,-20.5 33.97,-47.15 36.24,-74.55l0 -20.67c-4.7,-58.65 -48.87,-114.47 -112.84,-114.47l-138.22 0c13.78,-44.89 43.04,-75.15 101.72,-79.14l45.58 -3.74c14.27,0 25.5,3.56 45.77,3.56 164.37,0 303.04,25.45 341.77,-168.89 3.13,-15.72 7.51,-34.48 9.71,-50.19 2.43,-17.38 7.25,-36.85 7.59,-52.32 38.12,-8.89 376.32,-3.52 443.56,-3.52 0,23.75 15.77,105.17 21.78,129.75 10.38,42.47 27.98,71.89 56.48,98.53 130.08,121.57 438.92,-45.44 477.8,134.91 8.92,41.37 8.83,97.05 7.3,148 -0.52,17.4 2.77,14.61 2.25,32.01l0.63 348.53c6.98,62.28 9.87,197 -37.24,244.15 -15.49,15.5 -20.12,19.51 -42.66,27.77 -15.96,5.85 -37.22,10.14 -60.26,10.16 -1212.29,0.95 -1065.12,-0.12 -1168.88,-0.12zm1116.3 -791.82c0,84.91 97.76,66.48 97.76,10.58 0,-23.78 -19.17,-49.41 -43.28,-51.19 -28.17,-2.09 -54.48,20.45 -54.48,40.61zm-762.59 512.85c-25.39,-24.17 -46.22,-54.12 -60.56,-82.9 -82.32,-165.16 43.65,-368.96 220.66,-368.96 85.89,0 139.34,18.07 199.78,78.42 22.81,22.79 36.48,40.8 51.41,71.89 26.92,56.04 29.25,109.35 14.3,168.37 -22.19,87.58 -96.41,174.78 -187.56,192.87 -83.09,16.5 -175.16,0.14 -238.02,-59.69zm146.83 -520.01c-190.49,17.46 -314.71,179.42 -300.02,357.17 14.06,170.05 169.07,314.85 359.15,296.11 183.22,-18.06 311.81,-179.6 295.57,-359.43 -14.99,-165.96 -169.32,-310.84 -354.7,-293.85zm-833.8 191.22c0.3,45.6 1.2,87.04 1.23,114.32 0.08,62.1 1.99,124.84 0.84,186.8 -1.14,61.62 -3.95,125.42 1.29,186.8 9.92,115.98 71.63,181.4 189.06,188.3 60.64,3.56 128.6,0.33 190.12,0.3l939.93 -0.05c118.72,-0.09 252.14,18.48 325.43,-53.01 79.81,-77.86 58.04,-193.9 57.96,-318.81 -0.09,-125.09 -2.25,-252.27 0.74,-377.13 1.44,-60.16 3.24,-116.98 -15.96,-171.18 -14.83,-41.87 -52.24,-80.17 -89.1,-97.51 -86.79,-40.81 -278.68,-3.46 -353.92,-23.16 -128.43,-33.63 -71.03,-199.34 -125.74,-251.01 -29.19,-27.57 -124.48,-17.65 -172.56,-17.65 -62.19,0 -124.38,0 -186.58,0 -46.94,0 -142.42,-9.67 -173.33,16.85 -59.71,51.22 -1.12,215.84 -125.91,250.94 -33.85,9.52 -141.17,5.2 -183.04,4.7 -107.93,-1.31 -216.18,-1.42 -262.19,113.64 -7.73,19.31 -10.7,44.85 -12.79,65.74l-1.24 32.49 214.33 0.14c22.02,0 49.37,27.23 49.37,49.16l0 17.55c0,21.93 -33.22,49.15 -55.24,49.15l-213.08 0 0.39 32.63z"/>
 </g>
</svg>
