<?xml version="1.0" encoding="UTF-8"?>
<!DOCTYPE svg PUBLIC "-//W3C//DTD SVG 1.1//EN" "http://www.w3.org/Graphics/SVG/1.1/DTD/svg11.dtd">
<!-- Creator: CorelDRAW 2020 (64-Bit Versión de evaluación) -->
<svg xmlns="http://www.w3.org/2000/svg" xml:space="preserve" width="36.7606mm" height="41.3566mm" version="1.1" style="shape-rendering:geometricPrecision; text-rendering:geometricPrecision; image-rendering:optimizeQuality; fill-rule:evenodd; clip-rule:evenodd"
viewBox="0 0 1641.29 1846.5"
 xmlns:xlink="http://www.w3.org/1999/xlink"
 xmlns:xodm="http://www.corel.com/coreldraw/odm/2003">
 <defs>
  <style type="text/css">
   <![CDATA[
    .str0 {stroke:black;stroke-width:3.4;stroke-miterlimit:22.9256}
    .fil0 {fill:black}
   ]]>
  </style>
 </defs>
 <g id="Capa_x0020_1">
  <metadata id="CorelCorpID_0Corel-Layer"/>
  <g id="_1913615427824">
   <path class="fil0 str0" d="M66.66 1570.9c0,-41.97 13.96,-90.15 26.44,-122.09 39.54,-101.15 113.38,-198.07 226.74,-218.81 42.74,-7.82 88.37,-12.29 132.25,-16.39 37.09,-3.46 39.67,-1.73 56.23,17.53 0.88,1.03 3.35,4.02 4.26,5.02 99.26,108.2 376.84,105.8 512.85,59.16 39,-13.37 107.94,-45.35 117.68,-81.88 204.76,0 306.52,36.42 388.28,201.1 18.68,37.63 43.24,102.97 43.24,156.36 0,193.87 -633.16,208.9 -751.67,208.9 -218.93,0 -441.36,-17.29 -637.44,-86.43 -56.11,-19.79 -118.87,-53.79 -118.87,-122.47zm838.19 273.9l-193.76 0c-231.85,-7.23 -459.55,-41.4 -604.29,-114.44 -90.93,-45.88 -105.1,-96.34 -105.1,-182.67 0,-99.87 82.59,-253.42 159.69,-313.74 113.33,-88.66 221.1,-82.06 373.9,-94.78 37.38,160.54 424.56,138.02 533.8,60.56 30.48,-21.61 28.87,-55.04 43.76,-56.31l8.39 -0.47c2.7,0.02 8.79,0.47 12.22,0.58 207.34,5.86 352.66,30.19 452.03,230.84 37.65,76.02 54.11,116.99 54.11,210.47 0,132.44 -188.02,188.27 -294.25,211.61 -116.76,25.65 -273.85,43.32 -440.49,48.37z"/>
   <path class="fil0 str0" d="M1042.71 1022.63c-6.01,9.35 -63.13,49.89 -78.96,61.55 -19.95,14.69 -43.34,28.51 -59.07,34.6 -91.15,35.86 -175.38,-1.17 -238.32,-64.35 -13.47,-13.52 -29.81,-27.47 -41.06,-42.47 -112.96,-150.74 -76.08,-172.33 -76.09,-318.47 0,-56.72 3.85,-111.98 -10.81,-156.31 -17.52,-52.93 -41.45,-35.12 -5.86,-120.33 60.09,-143.83 258.45,-245.21 437.4,-148.96 65.09,35.01 128.36,105.14 149.13,180.42 10.66,38.64 13.6,31.04 -4.63,58.52 -36.29,54.69 -22.37,134.09 -22.37,219.14 -12.62,6.68 -27.78,11.53 -44.7,15.91 -27.48,7.1 -31.08,-0.54 -50.9,-8.45 -127.91,-51.01 -307.71,58.94 -250.62,204.32 22.35,56.92 72.59,104.88 134.48,116.14 22.47,4.09 51.03,2.46 76.01,0.37 16.97,-1.42 75.73,-31.41 86.36,-31.64zm-558.45 -384.84l0 64.99c0,113.91 -36.5,135.45 33.99,267.75 10.37,19.46 22.68,35.42 34.68,53.5 29.85,44.95 92.99,108.43 138.06,135.77 80.86,49.05 174.65,53.51 260.42,10.38 60.01,-30.18 114,-81.88 153.34,-134.4 25.17,-33.61 38.15,-61.74 47.65,-96.23 -128.73,0 -137.53,51.07 -232,51.07 -62.41,0 -116,-43.11 -116,-116.06 0,-42.24 59.23,-83.56 102.08,-83.56 88.23,0 39.18,-0.01 94.63,16.86 45.19,13.75 115.84,-14.21 155.92,-35.43 0,-41.78 0,-83.56 0,-125.35 -0,-47.94 -4.79,-78.33 16.5,-108.83 8.2,-11.73 21.77,-24.23 23.43,-35.61 4.15,-28.49 -26.83,-116.59 -43.59,-144.35 -62.73,-103.86 -182.45,-194.01 -307.21,-194.01l-46.4 0c-115.17,0 -237.51,82.09 -285,151.23 -31.04,45.21 -55.9,89.03 -67.12,151.07 -12.14,67.15 1.26,34.3 21.4,75.03 10.11,20.46 15.22,66.03 15.22,96.19z"/>
  </g>
  <path class="fil0" d="M371.37 507.41c10.2,-235.27 206.12,-428.23 448.61,-428.23 242.87,0 438.15,193 448.66,428.23 -72.42,25 -47.09,176.03 -45.35,286.51 -33.86,17.74 -56.89,32.46 -99.44,45.73l-92.51 18.8c-26.62,-1.33 -93.52,-49.57 -157.06,-14.28 -32.75,18.2 -29.41,76.38 5.04,91.57 31.64,13.96 104.24,10.42 127.53,-7.55 51.64,-39.84 95.08,-3.82 216.65,-73.29 76.23,-43.56 37.16,2.99 108.93,-11.53 88.1,-17.82 66.95,-133.61 67.31,-222.89 0.26,-65.06 2.35,-68.32 -36.75,-107.94 -14.81,-15.02 -10.22,8.14 -17.72,-55.23 -2.49,-21.01 -6.43,-41.07 -11.65,-60.59 -133.96,-501.1 -819.5,-533.26 -1006.51,-63.6 -35.66,89.56 -31.3,143.38 -37.1,160.47 -7.72,22.73 -26.17,21.46 -40.84,51.56 -18.48,37.92 -14.44,231.88 7.37,264.17 43.91,65.02 160.13,44.09 163.4,-55.81 1.54,-47.2 -0.11,-97.68 0.02,-145.3 0.14,-55.44 -8.47,-87.02 -48.58,-100.81z"/>
 </g>
</svg>
