<?xml version="1.0" encoding="UTF-8"?>
<!DOCTYPE svg PUBLIC "-//W3C//DTD SVG 1.1//EN" "http://www.w3.org/Graphics/SVG/1.1/DTD/svg11.dtd">
<!-- Creator: CorelDRAW 2020 (64-Bit Versión de evaluación) -->
<svg xmlns="http://www.w3.org/2000/svg" xml:space="preserve" width="33.5495mm" height="47.2795mm" version="1.1" style="shape-rendering:geometricPrecision; text-rendering:geometricPrecision; image-rendering:optimizeQuality; fill-rule:evenodd; clip-rule:evenodd"
viewBox="0 0 697.21 982.53"
 xmlns:xlink="http://www.w3.org/1999/xlink"
 xmlns:xodm="http://www.corel.com/coreldraw/odm/2003">
 <defs>
  <style type="text/css">
   <![CDATA[
    .str0 {stroke:#373435;stroke-width:1.58;stroke-miterlimit:22.9256}
    .fil0 {fill:black}
   ]]>
  </style>
 </defs>
 <g id="Capa_x0020_1">
  <metadata id="CorelCorpID_0Corel-Layer"/>
  <g id="_1914072470848">
   <path class="fil0 str0" d="M70.53 784.4c0,13.81 7.41,22.99 21.07,22.99 16.34,0 29.85,-28.36 40.35,-45.87 11.13,-18.56 19.79,-35.59 29.28,-56.94 24.13,-54.29 40.18,-108.44 43.41,-173.09 3.27,-65.53 16.49,-107.59 74.32,-144.09 30.32,-19.14 71.34,-22.34 107.75,-13.07 32.65,8.31 60.36,29.67 78.9,57.13 11,16.29 22.61,41.11 24.42,65.63 1.69,22.85 1.47,63.24 4.43,85.62 5.77,43.5 7.39,72.19 15.9,118.22 7.58,40.97 17.03,69.33 28.33,107.7 2.53,8.57 13.36,46.37 17.25,51.73 10.52,14.48 37.62,9.72 37.62,-12.72 0,-7.66 -17.46,-60.52 -21.31,-72.56 -7.6,-23.79 -13.47,-48.7 -18.76,-75.12 -5.69,-28.41 -15.98,-92.8 -17.39,-122.48 -0.76,-16 -1.01,-29.07 -1.92,-45.97 -2.23,-41.49 -5.89,-76.25 -26.93,-112.94 -31.86,-55.57 -82.48,-83.71 -145.19,-90.47 -102.46,-11.03 -196.81,80.63 -197.74,174.6 -1.63,166.2 -93.8,266.81 -93.8,281.71z"/>
   <path class="fil0 str0" d="M116.51 862.95c0,9.67 18.07,36.86 43.25,3.02 6.16,-8.29 11.05,-14.83 16.93,-23.31 11.61,-16.75 20.12,-31.96 30.69,-49.78 19.09,-32.17 36.97,-72.92 49.72,-111.22 14.16,-42.52 22.86,-79.48 28.34,-130.68 2.99,-27.96 -1.64,-48.07 10.52,-69.95 23.04,-41.43 86.77,-40.79 107.98,6.35 9.62,21.39 4.17,56.38 1.93,82.48 -2.33,27.13 -7.98,53.51 -12.99,77.06 -20.03,94.2 -70.19,205.14 -128.84,283.08 -6.36,8.45 -28.71,32.52 -10.74,47.14 3.02,2.46 5.97,3.91 8.81,4.59l7.83 0c13.61,-3.15 23.76,-21.66 26.37,-25.21 79,-107.55 140.23,-252.4 151.6,-384.85 5.04,-58.76 10.98,-84.91 -24,-129.17 -42.49,-53.77 -148.6,-44.12 -174.01,40.36 -15.43,51.29 13.06,106.38 -69.55,271.48 -16.92,33.83 -35.67,61.96 -57.89,91.56 -3.98,5.3 -5.95,7.77 -5.95,17.03z"/>
   <path class="fil0 str0" d="M30.3 694.35c0,19.7 15.78,24.38 25.22,21.57 13.79,-4.11 15.69,-14.9 22.31,-25.77 9.67,-15.86 21.91,-47.63 27.94,-65.94 34.57,-104.94 -1.21,-140.43 52.78,-230.77 24.14,-40.4 58.03,-67.65 100.37,-87.39 35.34,-16.47 61.8,-17.87 100.92,-17.87 43.21,0 84.43,18.95 111.52,36.01 32.75,20.61 46.06,48.48 62.6,47.72 17.28,-0.79 19.39,-14.21 19.39,-26.25 0,-8.53 -27.92,-32.52 -34.75,-38.05 -3.92,-3.17 -5.17,-5.01 -9.29,-7.95 -3.95,-2.83 -7.06,-4.83 -11.22,-7.94 -6.43,-4.8 -14.94,-9.88 -22.62,-13.78 -53.06,-26.91 -79.45,-31.9 -140.53,-31.9 -51.19,0 -110.17,25.89 -139.59,48.17 -27.86,21.09 -49.75,41.65 -68.9,70.96 -18.17,27.81 -34.39,67.62 -40.06,101.72 -11.1,66.77 5.62,68.67 -26.6,161.16 -7.31,20.98 -29.48,60.75 -29.48,66.32z"/>
   <path class="fil0 str0" d="M41.79 223.04c0,15.14 7.85,22.99 22.99,22.99 11.68,0 20.72,-15.18 28.45,-21.36 55.13,-44.01 90.41,-70.52 165.02,-89.8 19.63,-5.07 68.82,-11.59 90.09,-11.59 11.02,0 13.17,1.86 22.94,2.1 10.46,0.26 15.32,0.5 23.4,1.51 43.36,5.41 80.27,16.73 117.79,35.48 40.82,20.41 57.41,33.88 90.12,61.24 12.39,10.36 15.13,22.43 33.14,22.43 13.63,0 19.16,-10.05 19.16,-22.99 0,-14.9 -44.83,-48.03 -55.28,-55.84 -60.44,-45.15 -148.69,-84.31 -224.48,-83.98 -11.92,0.05 -14.94,-2.09 -26.78,-2.09l-51.57 4.12c-83.15,9.42 -149.99,43.42 -213.66,92.89 -10.32,8.02 -41.31,33.38 -41.31,44.9z"/>
   <path class="fil0 str0" d="M246.79 192.38c0,29.71 25.78,22.35 37.23,19.98 69.18,-14.31 145.62,-4.88 207.39,28.54 100.04,54.13 159.98,152.94 163.43,269.56 0.46,15.57 9.73,22.89 20.89,22.37 28.25,-1.3 19.37,-37.06 19.34,-41.53 -0.07,-9.11 -0.4,-13.42 -1.28,-19.8 -11.25,-81.51 -41.12,-146.87 -99.44,-205.19 -30.34,-30.34 -62.68,-54.34 -102.85,-71.5 -64,-27.33 -133.93,-39.69 -204.66,-25.63 -16.12,3.21 -40.04,4.94 -40.04,23.18z"/>
   <path class="fil0 str0" d="M141.42 83.18c14.21,0 83.58,-40.23 185.84,-40.23 78,0 111.68,1.34 185.12,25.63 20.88,6.9 55,29.78 61.11,-3.69 2.03,-11.13 -5.29,-18.71 -13.67,-22.68 -50.35,-23.84 -129.54,-41.41 -190.42,-41.41 -63.35,0 -115.76,0.97 -175.07,20.35 -24.9,8.14 -73.08,18.61 -71.24,42.4 0.71,9.16 9.74,19.64 18.31,19.64z"/>
   <path class="fil0 str0" d="M342.59 958.75c0,12.86 7.71,21.28 16.97,22.99l7.07 0c6.14,-1.11 12.29,-5.17 16.85,-12.75 29.38,-48.87 41.18,-70.9 65.76,-120.08 3.68,-7.36 6.16,-16.06 12.13,-20.44l24.59 82.7c10.22,31.18 42.46,12.45 42.46,-0.31 0,-8.95 -4.3,-19.74 -6.94,-27.54l-25.39 -79.99c-4.25,-12.63 -10.51,-43.62 -19.8,-51.1 -23.4,-18.82 -34.5,13.62 -37.91,20.68 -7.54,15.61 -13.69,31.35 -21.71,47.26 -8.3,16.47 -15.43,30.73 -23.62,47.26l-50.46 91.32z"/>
   <path class="fil0 str0" d="M204.64 230.7c0,-13.95 -7.51,-22.99 -21.07,-22.99 -20.11,0 -73.32,51.42 -89.58,67.53 -24.89,24.67 -49.14,63.04 -63.17,95.85 -6.93,16.21 -11.44,28.1 -16.69,46.54 -4.66,16.38 -21.69,92.3 -8.35,107.72 11.45,13.24 34.12,7.99 35.96,-11.13 3.78,-39.37 5.18,-68.55 19.47,-106.98 12.99,-34.94 24.47,-54.26 45.71,-82.66l45.69 -48.19c21.97,-17.69 52.02,-30.79 52.02,-45.69z"/>
   <path class="fil0 str0" d="M559.09 428.04c0,9.65 6.81,29.02 9.78,43.87 2.95,14.74 3.64,29.69 3.63,48.1 -0.02,69.35 5.67,121.5 23.4,185.44 2.27,8.19 14.58,52.86 19.23,59.32 13.99,19.39 37.84,6.11 37.84,-9.1 0,-15.17 -17.81,-63.07 -22.63,-80.83 -7.39,-27.19 -10.13,-61.74 -13.49,-91.88l-2.21 -49.52c0.87,-169.1 -55.55,-124.32 -55.55,-105.39z"/>
   <path class="fil0 str0" d="M172.07 922.35c0,21.29 24.96,28.6 38.68,11.85l45.26 -63.95c3.94,-6.31 6.98,-10.97 11.03,-17.71l20.07 -35.49c17.65,-30.39 46.13,-98.54 55.88,-135.89 6.15,-23.57 -28.2,-37.54 -39.36,-14.27 -2.91,6.07 -4.26,13.43 -6.33,20.49 -18.69,63.66 -62.62,145.3 -104.15,200.48 -5.22,6.93 -21.08,24.81 -21.08,34.49z"/>
   <path class="fil0 str0" d="M321.52 596.64c0,11.16 9.73,17.24 21.07,17.24 19.91,0 20.83,-20.78 22.83,-38.47 2.45,-21.66 14.89,-84.14 -15.17,-84.14 -10.59,0 -18.69,3.29 -21.95,14.46 -2.72,9.34 -0.31,21.21 -1.15,31.42 -1.59,19.25 -5.65,39.13 -5.65,59.5z"/>
  </g>
 </g>
</svg>
