<?xml version="1.0" encoding="UTF-8"?>
<!DOCTYPE svg PUBLIC "-//W3C//DTD SVG 1.1//EN" "http://www.w3.org/Graphics/SVG/1.1/DTD/svg11.dtd">
<!-- Creator: CorelDRAW 2020 (64-Bit Versión de evaluación) -->
<svg xmlns="http://www.w3.org/2000/svg" xml:space="preserve" width="46.1774mm" height="45.528mm" version="1.1" style="shape-rendering:geometricPrecision; text-rendering:geometricPrecision; image-rendering:optimizeQuality; fill-rule:evenodd; clip-rule:evenodd"
viewBox="0 0 3408.37 3360.44"
 xmlns:xlink="http://www.w3.org/1999/xlink"
 xmlns:xodm="http://www.corel.com/coreldraw/odm/2003">
 <defs>
  <style type="text/css">
   <![CDATA[
    .fil0 {fill:black}
   ]]>
  </style>
 </defs>
 <g id="Capa_x0020_1">
  <metadata id="CorelCorpID_0Corel-Layer"/>
  <path class="fil0" d="M2301.31 3054.96c-37.11,10.05 -79.15,31.82 -119.84,45.61 -137.91,46.75 -256.71,73.23 -405.36,82.89 -197.66,12.86 -393.99,-17.16 -569.06,-72.36 -655.59,-206.73 -1088.88,-862.64 -1030.66,-1563.88 41.77,-503.11 332.33,-937.35 764.58,-1184.66 769.21,-440.11 1780.74,-104 2132.66,741.5 66.36,159.44 108.63,346.72 112.92,540.71 5.96,269.27 -36.37,337.49 -90.68,556.74l134.18 111.01c72.45,-105.31 125.1,-451.4 127.43,-607.8 8.23,-551.05 -241.81,-1034.64 -657.28,-1359.3 -33.16,-25.91 -67.91,-51.03 -105.05,-74.81 -316.13,-202.42 -727.41,-321.4 -1185.51,-249.53 -343.02,53.82 -733.7,254.59 -955.3,507.23 -250.32,285.39 -418.53,604.38 -449.42,1019.54 -90.27,1213.38 1076.48,2077.82 2159.57,1738.09 63.65,-19.97 216.21,-70.05 258.31,-107.04l-121.49 -123.95z"/>
  <path class="fil0" d="M1999.8 1927.73c176.88,-0.55 372.43,46.9 501.1,123.1 91.02,53.9 252.68,221.24 331.28,298.64 53.45,52.62 100.76,100.65 152.96,154.57 26.7,27.58 54.84,48.73 81.27,76.09 154.28,159.72 300.98,279.07 88.8,488.95 -42.47,42.01 -117.9,101.94 -202.86,105.19 -100.21,3.85 -158.54,-73.12 -200.65,-114.83 -107.28,-106.25 -212.57,-203.58 -317.79,-312.06l-186.59 -195.72c-31.86,-37.45 -82.36,-93 -104.86,-135.34 -51.65,-97.18 -133.83,-362.14 -142.66,-488.6zm-150.26 -5.66c13.08,97.78 44.82,224.24 65.47,324.01 55.35,267.46 132.15,343.42 273.62,506.46l290.93 293.9c92.64,90.22 198.93,219.37 329.64,255.3 451.16,124.02 727.97,-350.47 538.91,-665.81 -64.45,-107.49 -379.55,-404.32 -476.02,-498.69 -271.42,-265.53 -416.56,-294.36 -808.7,-361.69 -95.16,-16.33 -239.18,-42.71 -213.86,146.52z"/>
  <path class="fil0" d="M862.68 1336.8c-95.81,33.12 -72.48,136.47 -14.64,161.83 48.79,21.39 1197.93,9.31 1339.11,9.31 85.13,0 493.32,9.68 541.09,-5.07 74.05,-22.84 78.87,-131.83 10.72,-162.09 -46.04,-20.44 -718.94,-9.81 -799.41,-9.81 -137.92,0 -1022.48,-12.98 -1076.88,5.83z"/>
  <path class="fil0" d="M1380.46 872.42c-47.71,20.46 -76.66,77.88 -26.03,120.49 36.97,31.13 120.34,18.98 172.47,18.98 173.74,0 1117.5,7.71 1154.65,-5.18 51.07,-17.73 63.11,-81.72 24.36,-119.94 -35.14,-34.66 -119.8,-20.57 -173.62,-20.57 -169.34,0 -1119.54,-7.62 -1151.83,6.23z"/>
  <path class="fil0" d="M785 1967.04c12.62,69.41 71.82,76.32 149.16,76 75.01,-0.32 150.08,-0.06 225.1,-0.06 116.13,0 363.46,40.7 328.52,-118.82 -5.45,-24.84 -30.18,-53.26 -49.64,-63.36 -35.94,-18.67 -274.44,-10.34 -323.89,-10.34 -111.46,0 -358.42,-43.87 -329.24,116.58z"/>
  <path class="fil0" d="M1080.03 955.25c58.24,-200.22 -242.42,-252.64 -285.93,-79.9 -47.7,189.37 229.61,273.53 285.93,79.9z"/>
 </g>
</svg>
