<?xml version="1.0" encoding="UTF-8"?>
<!DOCTYPE svg PUBLIC "-//W3C//DTD SVG 1.1//EN" "http://www.w3.org/Graphics/SVG/1.1/DTD/svg11.dtd">
<!-- Creator: CorelDRAW 2020 (64-Bit Versión de evaluación) -->
<svg xmlns="http://www.w3.org/2000/svg" xml:space="preserve" width="56.5831mm" height="46.5948mm" version="1.1" style="shape-rendering:geometricPrecision; text-rendering:geometricPrecision; image-rendering:optimizeQuality; fill-rule:evenodd; clip-rule:evenodd"
viewBox="0 0 1893.74 1559.44"
 xmlns:xlink="http://www.w3.org/1999/xlink"
 xmlns:xodm="http://www.corel.com/coreldraw/odm/2003">
 <defs>
  <style type="text/css">
   <![CDATA[
    .fil0 {fill:black}
   ]]>
  </style>
 </defs>
 <g id="Capa_x0020_1">
  <metadata id="CorelCorpID_0Corel-Layer"/>
  <path class="fil0" d="M137.67 0l1618.39 0c75.72,0 137.67,61.95 137.67,137.67l0 1008.69c0,75.72 -61.95,137.67 -137.67,137.67l-1618.39 0c-75.72,0 -137.67,-61.95 -137.67,-137.67l0 -1008.69c0,-75.72 61.95,-137.67 137.67,-137.67zm-4.15 81.39l1630.3 1.1c31.85,0.02 57.91,26.06 57.91,57.9l0 1003.23c0,31.85 -26.06,57.92 -57.91,57.9l-1630.3 -1.1c-31.84,-0.02 -57.91,-26.05 -57.91,-57.9l0 -1003.23c0,-31.85 26.06,-57.92 57.91,-57.9z"/>
  <path class="fil0" d="M510.34 1397.84l157.97 0 12.91 -77.48 531.31 0 17.61 77.48 153.27 0c37.52,0 68.21,30.69 68.21,68.21l0 25.18c0,37.52 -30.69,68.21 -68.21,68.21l-873.07 0c-37.52,0 -68.21,-30.69 -68.21,-68.21l0 -25.18c0,-37.52 30.69,-68.21 68.21,-68.21z"/>
 </g>
</svg>
