<?xml version="1.0" encoding="UTF-8"?>
<!DOCTYPE svg PUBLIC "-//W3C//DTD SVG 1.1//EN" "http://www.w3.org/Graphics/SVG/1.1/DTD/svg11.dtd">
<!-- Creator: CorelDRAW 2020 (64-Bit Versión de evaluación) -->
<svg xmlns="http://www.w3.org/2000/svg" xml:space="preserve" width="68.4079mm" height="49.9879mm" version="1.1" style="shape-rendering:geometricPrecision; text-rendering:geometricPrecision; image-rendering:optimizeQuality; fill-rule:evenodd; clip-rule:evenodd"
viewBox="0 0 2667.75 1949.41"
 xmlns:xlink="http://www.w3.org/1999/xlink"
 xmlns:xodm="http://www.corel.com/coreldraw/odm/2003">
 <defs>
  <style type="text/css">
   <![CDATA[
    .fil0 {fill:black}
   ]]>
  </style>
 </defs>
 <g id="Capa_x0020_1">
  <metadata id="CorelCorpID_0Corel-Layer"/>
  <path class="fil0" d="M174.14 0l2047.06 0c95.77,0 174.14,78.37 174.14,174.14l0 971.99c-6.06,-10.57 -13.14,-19.62 -20.41,-26.09 -24.41,-21.74 -40.44,-22.39 -70.67,-22.29l0 -920.15c0,-40.28 -32.96,-73.22 -73.25,-73.24l-2062.12 -1.4c-40.28,-0.02 -73.25,32.95 -73.25,73.24l0 1268.96c0,40.29 32.97,73.21 73.25,73.24l1645.71 1.12c-0.83,39.88 -3.27,75.91 8.06,104.63l-1648.52 0c-95.77,0 -174.14,-78.37 -174.14,-174.14l0 -1275.86c0,-95.77 78.37,-174.14 174.14,-174.14z"/>
  <g id="_1914203395328">
   <path class="fil0" d="M2042.39 1323.25l12.72 -11.04c31.1,15.78 63.97,46.71 98.1,46.71l84.84 -33.94c16.79,-12.96 25.66,-78.31 25.98,-92.88 29.77,0 20.37,-1.33 31.65,47.57 15.97,69.23 19.91,51.92 63.33,71.33 9.8,4.38 36.03,19.81 47.5,19.81 26.18,0 70.26,-43.6 83.12,-43.6 15,0 15.72,8.38 10.81,18.03 -37.25,73.2 -58.49,48.83 -25.44,127.4 6.73,16.02 7.39,33.49 17.76,45.62 12.3,14.4 70.55,28.78 95.82,30.88 -0.43,19.33 4.03,14.45 -11.39,20.3 -18.16,6.89 -64.38,9.29 -82.73,24.17 -13.4,10.88 -44.41,86.84 -44.41,98.2 0,16.82 32.55,58.25 38.47,69.01 8,14.55 4.48,15.15 -2.85,26.1 -18.59,-4.97 -69.83,-47.55 -91.03,-47.55 -8.58,0 -35.12,13.28 -45.76,17.6 -13.04,5.29 -37.96,11.14 -46.24,17.1 -16.03,11.56 -28.87,74.12 -30.7,96.08l-19.79 0c-0.6,-27.08 -18.26,-84.2 -32.41,-98.32 -11.42,-11.41 -78.98,-40.38 -94.24,-40.38 -17.31,0 -35.68,16.38 -47.68,23.59 -8.95,5.39 -12.97,8.74 -21.97,14.2 -15.94,9.67 -12.44,6.52 -25.34,-2.13 6.58,-24.68 47.5,-68.56 47.5,-91.15 0,-9.35 -28.3,-87.51 -33.25,-93.52 -13.45,-16.32 -72.12,-23.45 -97.36,-29.33l0 -19.81c102.64,-23.94 97.99,-14.94 122.07,-75.93 18.01,-45.6 35.34,-35.79 -1.7,-92.16 -10.9,-16.59 -16.27,-24.72 -25.38,-41.96zm-523.21 -1157.22l86.59 0 1.24 0 56.31 0c8.14,1.42 14.84,4.46 20.23,10.55 41.08,46.41 26.66,166.34 65.77,183.82 11.08,4.95 18.39,6.7 30.54,13.08 11.69,6.13 17.47,12.37 30.13,8.05 32.28,-11.01 118.95,-100.62 165.23,-76.92 10.11,5.18 71.86,70.42 85.99,84.34 14.35,14.14 30.79,25.82 22.59,56.04 -4.96,18.29 -19.72,39.65 -28.78,54.7 -11.72,19.47 -22.21,34.03 -33.67,53.47 -19.73,33.43 -27.7,29.34 -16.22,54.11 10.69,23.07 15.49,51.9 25.7,57.83 33.03,19.18 172.81,2.72 174.11,79.3 3.08,180.9 15.95,148.95 -147.5,189.68 -44.86,11.18 -40.81,4.29 -51.29,31.87 -13.11,34.49 -26.01,37.64 -18.29,54.89 5.66,12.64 24.31,37.06 33.19,50.35 84.52,126.46 42.52,101.64 5.52,156.96 28.51,-2.38 27.95,-5.53 53.26,10.08 84.91,52.35 91.12,57.25 107.33,-27.62 8.44,-44.17 20.98,-67.83 75.28,-59.98 44.39,6.42 74.83,-17.94 91.94,38.6 5.66,18.73 7.9,40.34 12.38,58.94 18.22,75.67 77.62,-3.83 120.84,-14.58 32.32,-8.03 66.89,35.85 82.19,53.04 57.77,64.91 -18.83,89.4 -28.07,136.8 -2.14,10.98 0.91,21.54 5.63,28.28 7.09,10.12 9.85,8.77 23.62,12.07 84.22,20.12 95.56,18.28 96.8,61.97l0 75.87c-0.8,11.76 -3.97,19.39 -14.95,27.68 -31.7,23.92 -118.21,12.22 -114.5,58.04 2.64,32.73 84.32,77.76 24.21,136.89 -0.58,0.57 -1.43,1.38 -2.02,1.94 -5.92,5.62 -10.07,8.85 -16.47,15.21 -26.6,26.46 -43.1,54.24 -89.34,24.15 -97.08,-63.17 -40.74,-32.18 -91.7,-31.05 -3.48,14.96 -6.45,28.06 -10.33,45.14 -14.34,63.17 -19.85,69.32 -62.53,69.79l-22.14 0c-112.04,-0.16 -69.87,-8.9 -102.64,-107.27 -21.07,-63.24 -92.83,33.24 -132.63,25.68 -24.87,-4.73 -43.16,-28.85 -58.62,-44.23 -16.84,-16.76 -40.55,-35.09 -26.96,-68.5 20.01,-49.17 61.54,-75.96 41.58,-104.46 -8.1,-11.57 -21.2,-11.66 -36.99,-14.69 -82.88,-15.92 -88,-15.11 -83.65,-122.61 1.48,-36.49 21.5,-46.1 53.08,-53.86 25.95,-6.38 109.48,-10.03 66.5,-65.56 -54.92,-70.97 -30.64,-83.1 -24.44,-106.33 -34.99,18.54 -55.12,-1.73 -81.4,-17.57 -105.93,-63.83 -88.92,-70.61 -147.01,-48.65 -31.04,11.73 -26.68,-3.26 -42.41,68.5 -24.12,110 -9.68,124.9 -97.25,124.55 -116.85,-0.47 -120.25,18.22 -144.09,-77.68 -8.15,-32.81 -15.61,-60.02 -22.24,-92.66 -5.34,-26.3 -4.99,-18.43 -27.51,-27.95 -51.75,-21.88 -26.82,-34.93 -107.78,19.15 -102.62,68.56 -93.88,59.34 -166.4,-14.11 -11.74,-11.89 -18.63,-15.19 -29.85,-25.59 -50.26,-46.6 -8.12,-86.79 27.04,-145.59 39.01,-65.23 41.35,-45.23 22.42,-94.15 -15.47,-39.99 -3.79,-27.97 -20.85,-34.61l-111 -27.57c-34.01,-8.45 -57.73,-12.16 -60.95,-49.75l0 -117.32c3.72,-61.53 61.96,-58.24 138.57,-77.01 61.32,-15.03 47.09,-3.11 64.96,-45.92 16.52,-39.58 19.16,-28.56 0.04,-58.85 -4.7,-7.44 -5.93,-10.4 -10.39,-17.37 -14.89,-23.25 -30.03,-43.67 -42.85,-68.06 -26.04,-49.56 -17.33,-52.35 2.29,-77.11 17.46,-22.05 34.7,-37.2 54.18,-56.71 64.18,-64.26 63.27,-48.47 141.68,-1.17l52.04 31.12c52.65,33.72 42.34,-2.51 98.18,-7.16 0.34,-15.17 29.01,-150.4 44.36,-169.59 7.02,-8.77 9.73,-11.61 22.17,-12.71zm448.01 1117.59l-3.96 3.96 3.96 -3.96zm3.96 -3.96l-3.96 3.96 3.96 -3.96zm3.96 -3.97l-3.96 3.97 3.96 -3.97zm3.96 -3.96l-3.96 3.96 3.96 -3.96zm3.96 -3.96l-3.96 3.96 3.96 -3.96zm3.96 -3.96l-3.96 3.96 3.96 -3.96zm0 0l0 0zm31.66 -27.74l0 0zm3.96 -3.96l-3.96 3.96 3.96 -3.96zm3.96 -3.96l-3.96 3.96 3.96 -3.96zm-847.01 -808.47l46.55 -48.51 72.95 43.79c94.55,60.82 68.48,42.83 149.14,16.11 79.78,-26.44 66.19,-9.05 89.95,-104.12 5.78,-23.11 16.9,-58.2 17.42,-81.63l71.24 0c0.36,16.24 34.15,148.67 39.59,158.51 14.48,26.2 36.24,22.4 64.53,34.47 81.33,34.7 57.32,54.63 146.82,-5.12 26.07,-17.4 46.13,-30.62 73.62,-45.18l44.41 46.69c-9.28,34.7 -83.99,126.22 -83.99,155.43 0,11.25 22.37,52.14 27.29,67.79 8.74,27.79 9.73,51.59 31.25,67.78 13.01,9.78 134.96,37.12 155.19,38.8l0 71.33c-21.76,1.81 -143.62,33.27 -159.79,42.13 -25.5,13.97 -25.13,34.28 -36.37,62.66 -40.08,101.28 -59.5,33.3 27.24,179.27 8.11,13.65 14.42,24.91 22.47,36.95l-46.55 48.51c-32.18,-8.95 -124.21,-84.18 -147.4,-84.18 -10.45,0 -133.35,42.19 -142.57,55.4 -19.28,27.61 -25.65,121.45 -43.46,158.61l-67.29 0c-1.86,-22.35 -31.81,-144.37 -39.63,-158.47 -12.76,-22.98 -34.36,-27.38 -61.04,-37.96 -83.31,-33.05 -49.23,-63.85 -184.35,25.97 -11.93,7.93 -23.7,15.86 -35.58,23.82l-48.38 -50.64 84 -139.58c0,-21.25 -44.41,-138.99 -52.28,-145.8 -12.45,-10.76 -140.7,-40.09 -157.49,-40.46 0,-94.75 -11.65,-61.23 75.64,-86.75 23.82,-6.96 60.45,-12 80.24,-22.7 28.66,-15.51 25.58,-36.99 38.07,-64.92 53.01,-118.62 39.4,-46.05 -51.46,-217.97z"/>
   <path class="fil0" d="M1599.09 950.72c-54.74,0 -84.3,1.13 -131.68,-46.49 -96.38,-96.87 -19.29,-258.67 100.02,-258.67l27.7 0c109.59,0 187.96,155.22 99.97,254.65 -17.94,20.27 -60.17,50.5 -96.01,50.5zm-35.62 83.22c76.29,0 130.58,-19.82 179.2,-66.28 151.21,-144.51 37.89,-401.36 -143.58,-401.36l-39.58 0c-76.95,0 -170.93,68.25 -197.43,139.18 -4.96,13.29 -9.92,27.42 -13.34,42.12 -1.56,6.71 -6.98,43.64 -6.74,52.29 0.82,29.77 10.74,68.02 20.06,90.93 30.51,75 117.13,143.12 201.41,143.12z"/>
   <path class="fil0" d="M2192.79 1564.99c0,-50 21.95,-87.19 79.16,-87.19 94.95,0 108.55,158.35 -4.34,161.9 -39.43,1.24 -74.82,-34.73 -74.82,-74.72zm-83.12 -15.85c0,91.15 64.86,170.41 154.36,170.41 148.87,0 215.58,-172.46 125.74,-268.57 -47.16,-50.45 -76.99,-52.44 -133.65,-52.44 -76.62,0 -146.45,71.91 -146.45,150.59z"/>
  </g>
 </g>
</svg>
