<?xml version="1.0" encoding="UTF-8"?>
<!DOCTYPE svg PUBLIC "-//W3C//DTD SVG 1.1//EN" "http://www.w3.org/Graphics/SVG/1.1/DTD/svg11.dtd">
<!-- Creator: CorelDRAW 2020 (64-Bit Versión de evaluación) -->
<svg xmlns="http://www.w3.org/2000/svg" xml:space="preserve" width="54.3713mm" height="48.5473mm" version="1.1" style="shape-rendering:geometricPrecision; text-rendering:geometricPrecision; image-rendering:optimizeQuality; fill-rule:evenodd; clip-rule:evenodd"
viewBox="0 0 13516.58 12068.75"
 xmlns:xlink="http://www.w3.org/1999/xlink"
 xmlns:xodm="http://www.corel.com/coreldraw/odm/2003">
 <defs>
  <style type="text/css">
   <![CDATA[
    .fil0 {fill:black}
   ]]>
  </style>
 </defs>
 <g id="Capa_x0020_1">
  <metadata id="CorelCorpID_0Corel-Layer"/>
  <path class="fil0" d="M7695.52 0c3214.89,0 5821.06,2606.17 5821.06,5821.06 0,3214.89 -2606.17,5821.06 -5821.06,5821.06 -995.61,0 -1932.72,-250.11 -2752.2,-690.7l0 -645.24c354.35,217.85 736.45,394.95 1139.8,524.67 -438.05,-477.93 -808.04,-1144.44 -1076.88,-1938.96l-517.83 0c0.17,-194.7 2.31,-376.87 -3.85,-550.77l356.86 0c-179.09,-684.49 -287.3,-1443.46 -307.59,-2244.69l-2093.09 0c1.49,28.89 3.23,57.72 5.2,86.49l-0.5 -0.02 -236.79 0c-108.02,5.87 -215.04,19.76 -320.04,41.29 -9.12,-133.22 -14.15,-267.59 -14.15,-403.13 0,-3214.89 2606.17,-5821.06 5821.06,-5821.06zm-3586.25 10406.42c-271.62,-212.77 -523.7,-449.32 -753.5,-706.22l753.5 0 0 706.22zm-1391.85 -1566.56c-219.64,-361.24 -400.91,-748.43 -538.39,-1155.71 28.14,-5.42 56.63,-8.3 85.24,-8.3l151.64 0c177.52,0 355.42,116.97 466.79,275.32 31.37,70.73 64.26,140.61 98.59,209.67 10.34,40.52 15.91,81.59 15.91,122.31l0 556.71 -279.8 0zm6590.47 -8028.59c444.12,484.52 818.36,1162.79 1088.06,1971.85l1596.32 0c-651,-918.97 -1589.48,-1619.79 -2684.38,-1971.85zm1250.07 2522.62c174.02,675.94 279.22,1423.32 299.24,2211.77l2093.09 0c-41.14,-797.08 -259.73,-1547.2 -616.9,-2211.77l-1775.44 0zm299.24 2762.54c-20.29,801.23 -128.55,1560.12 -307.59,2244.69l1766.06 0c367.68,-672.68 592.83,-1434.43 634.62,-2244.69l-2093.09 0zm-472.41 2795.46c-268.83,794.54 -638.85,1461.06 -1076.93,1939.01 1081.75,-347.84 2010.78,-1036.16 2660.72,-1939.01l-1583.79 0zm-5850.97 -3346.22c19.99,-788.45 125.27,-1535.79 299.24,-2211.77l-1775.44 0c-357.14,664.6 -575.8,1414.69 -616.9,2211.77l2093.09 0zm461.25 -2762.54c269.68,-809.09 643.94,-1487.38 1088.09,-1971.9 -1094.95,352.01 -2033.48,1052.84 -2684.41,1971.9l1596.32 0zm3012.88 -2209.41c735.28,185.23 1374.15,1015.77 1780.26,2209.41l-1780.26 0 0 -2209.41zm1944.23 2760.18c171.88,665.15 277.01,1415.14 296.8,2211.77l-2241.03 0 0 -2211.77 1944.23 0zm296.8 2762.54c-20.09,809.78 -128.3,1571.41 -305.2,2244.69l-1935.83 0 0 -2244.69 2241.03 0zm-471.99 2795.46c-406.58,1176.12 -1040.51,1992.96 -1769.05,2176.52l0 -2176.52 1769.05 0zm-2393.9 2176.52c-728.54,-183.51 -1362.46,-1000.48 -1769.07,-2176.52l1769.07 0 0 2176.52zm-1935.86 -2727.29c-176.93,-673.25 -285.12,-1434.91 -305.2,-2244.69l2241.06 0 0 2244.69 -1935.86 0zm-305.2 -2795.46c19.76,-796.68 124.97,-1546.58 296.8,-2211.77l1944.26 0 0 2211.77 -2241.06 0zm460.78 -2762.54c406.08,-1193.74 1044.98,-2024.16 1780.28,-2209.41l0 2209.41 -1780.28 0z"/>
  <path class="fil0" d="M310.8 11502.02l0 -1828.21c0,-137.13 89.1,-255.96 219.39,-255.96l3619.83 0c130.29,0 219.39,118.83 219.39,255.96l0 1828.21c0,159.95 -95.98,255.96 -255.93,255.96l-3546.74 0c-159.95,0 -255.93,-96.01 -255.93,-255.96zm1883.03 -1118.79c0,-206.98 292.5,-206.98 292.5,0 0,47.43 -13.85,80.82 -40.87,105.38 -82.29,74.88 -251.63,42.31 -251.63,-105.38zm-329.07 -18.3c0,240.52 134.84,363.97 310.77,457.07 0,67.54 0,134.64 -1.07,202.16 -2.71,171.13 -30.63,145.18 275.3,145.18 88.7,0 54.87,-172.45 54.87,-347.34 162.73,-86.11 310.8,-211.08 310.8,-438.77 0,-267.52 -199.25,-475.34 -511.91,-475.34 -221.75,0 -438.75,231.15 -438.75,457.05zm2340.55 1703.81l-3730.38 0c-233.16,-0.27 -474.62,-241.79 -474.92,-474.9l0 -2011.93c0.3,-236.81 230.97,-456.05 457.05,-474.87 0,-343.71 -23.22,-837.55 34.41,-1117.35 117.16,-568.77 462.12,-1059.5 952.58,-1314.41 877.4,-456 1845.69,-209.17 2405.68,538.24 165.47,220.83 285.24,467.74 339.86,793.62 52.6,313.88 33.59,731.47 33.59,1099.9 226.2,18.84 457.05,238.36 457.05,475.34l0 2011.03c0,233.26 -241.64,475.05 -474.9,475.32zm-2797.59 -3729.54c0,-832.85 992.95,-1265.06 1586.05,-671.93 167.18,167.18 278.73,391.32 278.73,653.66l0 786.12 -1864.78 0 0 -767.84zm-329.07 109.71l0 658.14 -292.52 0c0,-756.43 -90.09,-1337.65 456.2,-1883.92 981.94,-981.96 2651.77,-258.47 2651.77,1079.51l0 804.41 -292.52 0c0,-802.5 87.93,-1448.98 -658.86,-1882.36 -337.25,-195.7 -836.31,-198.83 -1181.86,-13.2 -265.28,142.52 -495.75,388.16 -598.03,681.73 -58.47,167.8 -84.18,337.4 -84.18,555.69z"/>
 </g>
</svg>
