<?xml version="1.0" encoding="UTF-8"?>
<!DOCTYPE svg PUBLIC "-//W3C//DTD SVG 1.1//EN" "http://www.w3.org/Graphics/SVG/1.1/DTD/svg11.dtd">
<!-- Creator: CorelDRAW 2020 (64-Bit Versión de evaluación) -->
<svg xmlns="http://www.w3.org/2000/svg" xml:space="preserve" width="44.1153mm" height="44.0225mm" version="1.1" style="shape-rendering:geometricPrecision; text-rendering:geometricPrecision; image-rendering:optimizeQuality; fill-rule:evenodd; clip-rule:evenodd"
viewBox="0 0 5221.93 5210.94"
 xmlns:xlink="http://www.w3.org/1999/xlink"
 xmlns:xodm="http://www.corel.com/coreldraw/odm/2003">
 <defs>
  <style type="text/css">
   <![CDATA[
    .fil0 {fill:black}
   ]]>
  </style>
 </defs>
 <g id="Capa_x0020_1">
  <metadata id="CorelCorpID_0Corel-Layer"/>
  <path class="fil0" d="M3037.79 4647.89c90.54,-430.78 870.72,-783.04 1333.62,-397.01 86.2,71.89 247.87,254.15 301.37,384.99 -406.29,454.87 -1183.91,488.1 -1634.99,12.03zm-1538.57 -709.53c-117.42,507.97 -910.22,341.64 -788.52,-173.61 118.77,-502.89 905.59,-332.89 788.52,173.61zm2094.41 -264.57c-84.58,-357.67 444.04,-466 520.05,-127.84 80.22,356.91 -442.79,454.56 -520.05,127.84zm-113.06 254.48c-445,212.53 -349.95,249.26 -596.76,486.75 -256.95,-288.81 -195.13,-868.24 -2.25,-1160.5 103.38,-156.65 211.18,-269.41 375.87,-369.86 550.02,-335.46 1220.11,-171.28 1556.56,358.45 97.94,154.21 164.33,352.96 174.94,574.79 9.26,193.69 -45.5,489.27 -156.76,596.03 -95.97,-64.84 -168.35,-254.37 -419.2,-397.26 -39.32,-22.41 -160,-71.24 -180.89,-90.34 96.73,-155.51 161.41,-314.65 64.07,-526.4 -182.94,-398.01 -703.74,-333.91 -871.84,-23.92 -130.92,241.43 12.77,434.19 56.25,552.27zm-2216.43 -2330.56c403.19,-46.25 709.63,180.57 846.1,404.7 82.85,136.05 89.67,197.52 -177.25,339.63 -728.11,387.64 -1382.51,-95.68 -1382.72,-193.56 -0.27,-137.24 191.93,-319.4 263.11,-373.14 113.79,-85.9 271.21,-157.04 450.75,-177.63zm2751.97 -631.52c242.47,-61.29 431.21,105.76 477.02,287.98 127.48,507.06 -641.68,694.65 -774.2,198.27 -68.24,-255.63 104.21,-437.48 297.18,-486.25zm-2719.63 -133.24c154.2,-38.45 291,72.93 317.47,198.46 35.91,170.32 -72.83,292.53 -200.84,322.04 -342.11,78.87 -468.09,-432.87 -116.63,-520.5zm-921.58 1084.09c-239.4,-322 -178.8,-827.95 25.32,-1168.18 166.37,-277.31 488.9,-537.13 964.67,-533.26 659.79,5.37 1124.96,547.7 1132.36,1125.12 2.38,185.63 -44.37,450.66 -170.32,572.8l-132.36 -139.44c-294.3,-326.9 -166.22,-150 -452.99,-350.07 85.75,-195.82 161.62,-304.19 42.19,-537.97 -179.19,-350.75 -671.34,-355.75 -857.83,3.86 -99,190.88 -31.29,368.5 48.48,531.13 -39.33,36.2 -118.9,68.55 -174.48,100.34 -243.68,139.43 -338.89,341.75 -425.04,395.66zm1871.61 482.23l563.42 577.01c-156.92,234.36 -260.69,423.82 -312.73,770.47l-786.51 -2.25c-105.48,-280.48 -261.72,-527.61 -646.84,-496.75 -766.14,61.39 -719.45,1160.07 -12.12,1209.87 396.05,27.88 564.66,-190.91 660.2,-493.6l788.19 0.49c70.04,382.54 155.7,570.45 343.92,803.95l141.95 134.43c182.98,141.71 333.31,225.74 588.43,278.47 1022.48,211.31 1875.43,-745.66 1592.69,-1713.75 -92.67,-317.3 -273.55,-524.96 -472.95,-681.91 -366.64,-288.57 -878.46,-364.78 -1344.73,-181.88 -210.86,82.72 -276.95,158.81 -373.11,203.34l-576.04 -562.23c18.96,-50.26 130.63,-192.72 194.84,-347.31 58.84,-141.69 88.87,-273.12 121.44,-431.8l784 -1.1c85.03,199.37 66.22,206.77 215.71,362.66 243.37,253.8 965.26,182.94 987.69,-462.87 19.59,-564.2 -593.42,-778.05 -985.36,-484.07 -108.24,81.18 -159.36,187.94 -216.62,360.74l-791.3 4.75c-71.7,-630.96 -493.83,-1107.92 -1077.96,-1219.12 -730.75,-139.12 -1292.84,286.34 -1505.49,749.89 -525.12,1144.67 664.78,2445.32 1937.36,1732.56 58.33,-32.67 128.96,-90.41 181.93,-109.97z"/>
 </g>
</svg>
