<?xml version="1.0" encoding="utf-8"?>
<!-- Generator: Adobe Illustrator 25.2.1, SVG Export Plug-In . SVG Version: 6.00 Build 0)  -->
<svg version="1.1" id="Capa_1" xmlns="http://www.w3.org/2000/svg" xmlns:xlink="http://www.w3.org/1999/xlink" x="0px" y="0px"
	 viewBox="0 0 213 196" style="enable-background:new 0 0 213 196;" xml:space="preserve">
<style type="text/css">
	.st0{clip-path:url(#SVGID_2_);}
	.st1{fill-rule:evenodd;clip-rule:evenodd;fill:#111067;}
	.st2{clip-path:url(#SVGID_4_);}
	.st3{fill-rule:evenodd;clip-rule:evenodd;fill:#94B8D7;}
	.st4{clip-path:url(#SVGID_6_);}
	.st5{fill:#111067;}
</style>
<g>
	<defs>
		<rect id="SVGID_1_" x="7" y="12.3" width="155.3" height="19.5"/>
	</defs>
	<clipPath id="SVGID_2_">
		<use xlink:href="#SVGID_1_"  style="overflow:visible;"/>
	</clipPath>
	<g class="st0">
		<path class="st1" d="M7,12.3h154.5l-18.6,18.6H7V12.3z"/>
	</g>
</g>
<g>
	<defs>
		<rect id="SVGID_3_" x="78.3" y="12.3" width="128.7" height="131"/>
	</defs>
	<clipPath id="SVGID_4_">
		<use xlink:href="#SVGID_3_"  style="overflow:visible;"/>
	</clipPath>
	<g class="st2">
		<path class="st3" d="M97.5,84.5c24.1-24.1,48.2-48.1,72.3-72.2h26.4L136.4,72l70.6,70.5l-0.8,0.8h-24.8l-58.2-58.1l-25.7,25.6
			v32.5H78.9V49.5h45.4l-18.6,18.6h-8.1V84.5z"/>
	</g>
</g>
<g>
	<defs>
		<rect id="SVGID_5_" x="7" y="49.1" width="54" height="94.2"/>
	</defs>
	<clipPath id="SVGID_6_">
		<use xlink:href="#SVGID_5_"  style="overflow:visible;"/>
	</clipPath>
	<g class="st4">
		<path class="st1" d="M7,68.1h34.6v75.1h18.6V49.5c-17.7,0-35.5,0-53.2,0V68.1z"/>
	</g>
</g>
<g>
	<g transform="translate(122.179243, 257.399496)">
		<g>
			<path class="st5" d="M-91.2-69.1h2.1v-19.8h8.5v-2.2h-19.1v2.2h8.5V-69.1z"/>
		</g>
	</g>
</g>
<g>
	<g transform="translate(140.464314, 257.399496)">
		<g>
			<path class="st5" d="M-84.2-91.1l-9.4,22h2.3l1.9-4.5h11.7l1.9,4.5h2.3l-9.4-22H-84.2z M-88.4-75.7l4.9-11.6l4.9,11.6H-88.4z"/>
		</g>
	</g>
</g>
<g>
	<g transform="translate(159.551566, 257.399496)">
		<g>
			<path class="st5" d="M-81.2-88.9h7c2.1,0,3.9,1.7,3.9,3.9h2.1c0-3.3-2.7-6-6-6h-7c-3.3,0-6,2.7-6,6c0,3.3,2.7,6.1,6,6.1h7
				c2.1,0,3.9,1.7,3.9,3.9c0,2.2-1.8,3.9-3.9,3.9h-7c-2.2,0-3.9-1.7-3.9-3.9h-2.1c0,3.3,2.7,6,6,6h7c3.3,0,6-2.7,6-6
				c0-3.3-2.7-6-6-6h-7c-2.2,0-3.9-1.7-3.9-3.9C-85.1-87.2-83.4-88.9-81.2-88.9z"/>
		</g>
	</g>
</g>
<g>
	<g transform="translate(177.836634, 257.399496)">
		<g>
			<path class="st5" d="M-63.6-91.1L-79-73.1v-18.1h-2.1v22h1.5l8-9.3l8,9.3h2.8l-9.4-11l9.4-11H-63.6z"/>
		</g>
	</g>
</g>
<g>
	<g transform="translate(197.041853, 257.399496)">
		<g>
			<path class="st5" d="M-55.6-88.9v-2.2h-19.1v22h19.1v-2.1h-17V-79h10.9v-2.2h-10.9v-7.8H-55.6z"/>
		</g>
	</g>
</g>
<g>
	<g transform="translate(215.326924, 257.399496)">
		<g>
			<path class="st5" d="M-49.5-85.1c0-3.3-2.7-6-6-6h-13.1v22h2.1V-79h6.9l8.5,9.9h2.8l-8.5-9.9h1.2C-52.3-79-49.5-81.7-49.5-85.1z
				 M-66.5-88.9h10.9c2.1,0,3.9,1.7,3.9,3.9c0,2.2-1.8,3.9-3.9,3.9h-10.9V-88.9z"/>
		</g>
	</g>
</g>
<g>
	<g transform="translate(234.532142, 257.399496)">
		<g>
			<path class="st5" d="M-56.2-88.9h7c2.1,0,3.9,1.7,3.9,3.9h2.1c0-3.3-2.7-6-6-6h-7c-3.3,0-6,2.7-6,6c0,3.3,2.7,6.1,6,6.1h7
				c2.1,0,3.9,1.7,3.9,3.9c0,2.2-1.8,3.9-3.9,3.9h-7c-2.2,0-3.9-1.7-3.9-3.9h-2.1c0,3.3,2.7,6,6,6h7c3.3,0,6-2.7,6-6
				c0-3.3-2.7-6-6-6h-7c-2.2,0-3.9-1.7-3.9-3.9C-60.1-87.2-58.4-88.9-56.2-88.9z"/>
		</g>
	</g>
</g>
</svg>
